#!OML:ASF I:\Random Stuff\random\construction\7_22_03\Session 2\subj1.ASF
:FULLY-SPECIFIED
:DEGREES
463
root -8.3704 17.5921 -0.438554 -139.004 72.7689 -161.035
lowerback 18.1735 5.24262 -4.66047
upperback 5.43172 6.2845 -6.53121
thorax -3.97818 3.36652 -5.71172
lowerneck -21.2181 6.95336 0.573278
upperneck 36.2105 19.7165 -13.6364
head 19.3942 6.63138 -1.77237
rclavicle -1.90833e-014 -1.43125e-014
rhumerus 1.87334 38.4835 -86.8203
rradius 98.2487
rwrist -11.4916
rhand -32.0528 24.5587
rfingers 7.12502
rthumb -5.29973 -5.355
lclavicle -1.90833e-014 -1.43125e-014
lhumerus 27.047 -10.3363 70.3165
lradius 38.1821
lwrist -9.56638
lhand -41.8588 67.3395
lfingers 7.12502
lthumb -14.7591 -96.794
rfemur -10.4247 -0.35949 16.3318
rtibia -1.43125e-014
rfoot -1.42485 -20.2058
rtoes -29.7108
lfemur -44.9907 -6.18894 -3.53239
ltibia 29.7525
lfoot -9.0538 0.943979
ltoes -32.7382
464
root -8.36518 17.5919 -0.435999 -138.934 72.7093 -160.976
lowerback 18.1386 5.26314 -4.61253
upperback 5.43056 6.32324 -6.5619
thorax -3.95015 3.38683 -5.77566
lowerneck -21.19 6.96123 0.630955
upperneck 36.2025 19.6915 -13.6193
head 19.3806 6.63401 -1.78114
rclavicle 6.83819e-014 -3.57812e-014
rhumerus 1.79976 38.2446 -86.9734
rradius 98.1045
rwrist -11.4955
rhand -32.0595 24.8505
rfingers 7.12502
rthumb -5.30621 -5.06304
lclavicle 6.83819e-014 -3.57812e-014
lhumerus 27.1173 -10.4314 70.3031
lradius 38.1929
lwrist -9.65956
lhand -41.7882 67.2997
lfingers 7.12502
lthumb -14.6911 -96.7592
rfemur -10.4099 -0.392925 16.4031
rtibia 1.11319e-014
rfoot -1.44098 -20.2044
rtoes -29.778
lfemur -45.0163 -6.21398 -3.45557
ltibia 29.7748
lfoot -9.06346 0.958959
ltoes -32.5961
465
root -8.36141 17.5917 -0.435119 -139.009 72.667 -161.04
lowerback 18.1426 5.25464 -4.60213
upperback 5.43547 6.31541 -6.58651
thorax -3.94329 3.38435 -5.80655
lowerneck -21.2113 6.96047 0.627238
upperneck 36.2491 19.6878 -13.569
head 19.4028 6.63387 -1.75863
rclavicle 2.06736e-014 -7.95139e-016
rhumerus 1.80999 38.1024 -87.0534
rradius 97.9282
rwrist -11.5306
rhand -32.1275 24.8656
rfingers 7.12502
rthumb -5.37186 -5.0463
lclavicle 2.06736e-014 -7.95139e-016
lhumerus 27.0956 -10.5367 70.1915
lradius 38.3118
lwrist -9.54294
lhand -41.8674 67.4297
lfingers 7.12502
lthumb -14.7674 -96.8836
rfemur -10.3673 -0.438469 16.4228
rtibia -2.38542e-014
rfoot -1.44252 -20.1925
rtoes -29.7926
lfemur -45.0115 -6.27362 -3.42978
ltibia 29.7837
lfoot -9.08469 0.986497
ltoes -32.475
466
root -8.35872 17.5911 -0.433895 -139.136 72.6472 -161.166
lowerback 18.1614 5.23563 -4.62914
upperback 5.42936 6.28413 -6.60409
thorax -3.9622 3.36948 -5.80685
lowerneck -21.238 6.95289 0.606156
upperneck 36.3528 19.7151 -13.5218
head 19.4655 6.64038 -1.72837
rclavicle 1.43125e-014 3.10104e-014
rhumerus 1.84556 38.0376 -87.0948
rradius 97.7093
rwrist -11.6645
rhand -32.3247 24.9652
rfingers 7.12502
rthumb -5.5622 -4.9418
lclavicle 1.43125e-014 3.10104e-014
lhumerus 27.0321 -10.5944 70.0664
lradius 38.4353
lwrist -9.41669
lhand -41.8904 67.4838
lfingers 7.12502
lthumb -14.7895 -96.936
rfemur -10.3437 -0.47956 16.4109
rtibia -2.54444e-014
rfoot -1.42879 -20.1931
rtoes -29.8236
lfemur -45.0112 -6.31237 -3.44262
ltibia 29.7879
lfoot -9.10715 0.977123
ltoes -32.4421
467
root -8.35526 17.59 -0.431762 -139.183 72.6274 -161.215
lowerback 18.1769 5.22175 -4.65742
upperback 5.41595 6.25797 -6.61085
thorax -3.98841 3.35632 -5.79596
lowerneck -21.2484 6.96219 0.586382
upperneck 36.4274 19.7687 -13.4966
head 19.5146 6.65709 -1.70168
rclavicle 2.46493e-014 -4.13472e-014
rhumerus 1.90043 38.0244 -87.116
rradius 97.4995
rwrist -11.7657
rhand -32.4161 25.2563
rfingers 7.12502
rthumb -5.65052 -4.64835
lclavicle 2.46493e-014 -4.13472e-014
lhumerus 27.0033 -10.4859 70.1055
lradius 38.4348
lwrist -9.51827
lhand -41.8635 67.3836
lfingers 7.12502
lthumb -14.7637 -96.8378
rfemur -10.3338 -0.505404 16.4203
rtibia 9.54166e-015
rfoot -1.43933 -20.1888
rtoes -29.742
lfemur -45.0128 -6.27324 -3.46731
ltibia 29.7882
lfoot -9.10868 0.909133
ltoes -32.5896
468
root -8.3508 17.5903 -0.429075 -139.133 72.6081 -161.174
lowerback 18.1641 5.21107 -4.69732
upperback 5.41265 6.23758 -6.60346
thorax -3.99139 3.34584 -5.76025
lowerneck -21.2658 7.00014 0.577099
upperneck 36.4388 19.8594 -13.5186
head 19.5429 6.68564 -1.68719
rclavicle -2.46493e-014 2.22639e-014
rhumerus 2.05102 38.081 -87.0759
rradius 97.3388
rwrist -11.8196
rhand -32.5217 25.3354
rfingers 7.12502
rthumb -5.75248 -4.56648
lclavicle -2.46493e-014 2.22639e-014
lhumerus 26.9986 -10.3202 70.1947
lradius 38.4067
lwrist -9.63998
lhand -41.93 67.3012
lfingers 7.12502
lthumb -14.8277 -96.7507
rfemur -10.3351 -0.512382 16.4564
rtibia -3.81667e-014
rfoot -1.45939 -20.1644
rtoes -29.7312
lfemur -45.0171 -6.18149 -3.48449
ltibia 29.7926
lfoot -9.11143 0.824937
ltoes -32.7635
469
root -8.34651 17.5916 -0.425693 -139.077 72.6022 -161.129
lowerback 18.128 5.21596 -4.75907
upperback 5.42529 6.23818 -6.58773
thorax -3.96682 3.34604 -5.70383
lowerneck -21.3233 7.01726 0.554376
upperneck 36.4706 19.9182 -13.5195
head 19.5844 6.69865 -1.66749
rclavicle 3.26007e-014 -3.33958e-014
rhumerus 2.25401 38.1562 -86.9963
rradius 97.2372
rwrist -12.0552
rhand -32.7077 25.0394
rfingers 7.12502
rthumb -5.93206 -4.8576
lclavicle 3.26007e-014 -3.33958e-014
lhumerus 27.0041 -10.2404 70.2395
lradius 38.4222
lwrist -9.69374
lhand -41.9961 67.2833
lfingers 7.12502
lthumb -14.8914 -96.7281
rfemur -10.3425 -0.508033 16.4864
rtibia 4.77083e-014
rfoot -1.50289 -20.1579
rtoes -29.7107
lfemur -45.021 -6.13036 -3.47507
ltibia 29.804
lfoot -9.12647 0.788839
ltoes -32.7425
470
root -8.34284 17.5917 -0.423444 -139.088 72.5904 -161.142
lowerback 18.0774 5.20928 -4.83507
upperback 5.46677 6.22701 -6.55006
thorax -3.90824 3.34092 -5.6092
lowerneck -21.3736 7.04295 0.518548
upperneck 36.4267 19.9937 -13.5834
head 19.5917 6.71295 -1.66879
rclavicle -6.20208e-014 -3.97569e-015
rhumerus 2.51879 38.2769 -86.8603
rradius 97.1303
rwrist -12.3344
rhand -32.7759 24.7001
rfingers 7.12502
rthumb -5.99786 -5.19503
lclavicle -6.20208e-014 -3.97569e-015
lhumerus 27.0316 -10.1312 70.2993
lradius 38.4181
lwrist -9.76626
lhand -42.0093 67.2944
lfingers 7.12502
lthumb -14.9041 -96.7382
rfemur -10.3334 -0.520551 16.5006
rtibia -3.33958e-014
rfoot -1.54738 -20.1771
rtoes -29.6462
lfemur -45.0264 -6.17879 -3.43595
ltibia 29.8161
lfoot -9.12858 0.834917
ltoes -32.7989
471
root -8.33898 17.5913 -0.421277 -139.075 72.5777 -161.131
lowerback 18.0467 5.20726 -4.88746
upperback 5.49536 6.22246 -6.52666
thorax -3.86954 3.33898 -5.54798
lowerneck -21.3255 7.10146 0.571354
upperneck 36.2766 20.0967 -13.7581
head 19.5461 6.74975 -1.73039
rclavicle 3.49861e-014 2.46493e-014
rhumerus 2.78758 38.3579 -86.7506
rradius 96.9814
rwrist -12.4464
rhand -32.8144 24.5145
rfingers 7.12502
rthumb -6.03503 -5.37956
lclavicle 3.49861e-014 2.46493e-014
lhumerus 27.0798 -10.0708 70.3187
lradius 38.3786
lwrist -9.8159
lhand -42.0081 67.273
lfingers 7.12502
lthumb -14.903 -96.7169
rfemur -10.3231 -0.528363 16.5239
rtibia -2.06736e-014
rfoot -1.53561 -20.1862
rtoes -29.7683
lfemur -45.0269 -6.19524 -3.41347
ltibia 29.8272
lfoot -9.131 0.869253
ltoes -33.0867
472
root -8.33465 17.5919 -0.41856 -139.062 72.5698 -161.109
lowerback 18.0857 5.25281 -4.85834
upperback 5.48213 6.28238 -6.56169
thorax -3.89346 3.36934 -5.62046
lowerneck -21.271 7.10546 0.681675
upperneck 36.2506 20.075 -13.8076
head 19.5372 6.75702 -1.77843
rclavicle -1.43125e-014 4.13472e-014
rhumerus 2.90977 38.2328 -86.7959
rradius 96.8521
rwrist -12.533
rhand -32.9977 24.5535
rfingers 7.12502
rthumb -6.21196 -5.33543
lclavicle -1.43125e-014 4.13472e-014
lhumerus 27.1588 -10.2211 70.3014
lradius 38.3254
lwrist -9.83305
lhand -41.9852 67.2063
lfingers 7.12502
lthumb -14.8809 -96.6518
rfemur -10.2971 -0.530027 16.5455
rtibia -1.43125e-014
rfoot -1.57733 -20.1865
rtoes -29.6037
lfemur -45.0053 -6.13627 -3.43347
ltibia 29.8386
lfoot -9.16103 0.807298
ltoes -33.2846
